<svg xmlns="http://www.w3.org/2000/svg" width="800" height="450" viewBox="0 0 800 450">
  <defs>
    <linearGradient id="g" x1="0%" y1="0%" x2="100%" y2="100%">
      <stop offset="0%" stop-color="#ecfeff"/>
      <stop offset="50%" stop-color="#cffafe"/>
      <stop offset="100%" stop-color="#67e8f9"/>
    </linearGradient>
  </defs>
  <rect width="800" height="450" fill="url(#g)"/>
  <text x="48" y="64" font-family="system-ui,sans-serif" font-size="20" font-weight="700" fill="#0e7490">BRIEFING</text>
  <text x="48" y="128" font-family="system-ui,sans-serif" font-size="40" font-weight="700" fill="#0c1e2a">Codex 自录技能 &amp; 大脑派狂欢</text>
  <text x="48" y="172" font-family="system-ui,sans-serif" font-size="20" fill="#155e75">AI Coding 演示即复用 · 具身融资半年破 438 亿</text>

  <!-- Left card: record & replay -->
  <rect x="48" y="220" width="280" height="170" rx="14" fill="#ffffff" opacity="0.85"/>
  <circle cx="86" cy="258" r="14" fill="#dc2626"/>
  <rect x="84" y="253" width="4" height="10" fill="#ffffff"/>
  <rect x="89" y="256" width="6" height="4" fill="#ffffff"/>
  <text x="112" y="264" font-family="system-ui,sans-serif" font-size="16" font-weight="700" fill="#0c1e2a">Record &amp; Replay</text>
  <text x="68" y="300" font-family="monospace" font-size="14" fill="#0e7490">demo() → skill()</text>
  <text x="68" y="324" font-family="monospace" font-size="14" fill="#0e7490">codex 26.616 macOS</text>
  <text x="68" y="348" font-family="monospace" font-size="14" fill="#0e7490">one-shot, forever</text>
  <text x="68" y="372" font-family="system-ui,sans-serif" font-size="12" fill="#155e75">Computer Use · 2026-06-22</text>

  <!-- Right card: embodied brain -->
  <rect x="356" y="220" width="396" height="170" rx="14" fill="#ffffff" opacity="0.85"/>
  <text x="378" y="258" font-family="system-ui,sans-serif" font-size="16" font-weight="700" fill="#0c1e2a">具身大脑 · 上半年融资 ¥438 亿</text>

  <!-- mini bar chart -->
  <g transform="translate(378,278)">
    <text x="0" y="0" font-family="system-ui,sans-serif" font-size="11" fill="#155e75">2024 ¥137 亿</text>
    <rect x="0" y="6" width="60" height="10" fill="#a5f3fc"/>
    <text x="0" y="42" font-family="system-ui,sans-serif" font-size="11" fill="#155e75">2025 ¥554 亿</text>
    <rect x="0" y="48" width="240" height="10" fill="#67e8f9"/>
    <text x="0" y="84" font-family="system-ui,sans-serif" font-size="11" fill="#155e75">2026H1 ¥438 亿</text>
    <rect x="0" y="90" width="190" height="10" fill="#0891b2"/>
  </g>
  <text x="378" y="378" font-family="system-ui,sans-serif" font-size="12" fill="#155e75">SpaceX 600 亿收 Cursor · Claude Opus 4.7 操控机器狗</text>
</svg>
